<svg xmlns="http://www.w3.org/2000/svg" xmlns:xlink="http://www.w3.org/1999/xlink" width="557" height="379" viewBox="0 0 557 379"><defs><clipPath id="a"><rect width="557" height="379" fill="none"/></clipPath></defs><g clip-path="url(#a)"><g transform="translate(-355 -1266)"><circle cx="2.5" cy="2.5" r="2.5" transform="translate(355 1266)" fill="#5e60cf"/></g><g transform="translate(-329 -1266)"><circle cx="2.5" cy="2.5" r="2.5" transform="translate(355 1266)" fill="#5e60cf"/></g><g transform="translate(-303 -1266)"><circle cx="2.5" cy="2.5" r="2.5" transform="translate(355 1266)" fill="#5e60cf"/></g><g transform="translate(-277 -1266)"><circle cx="2.5" cy="2.5" r="2.5" transform="translate(355 1266)" fill="#5e60cf"/></g><g transform="translate(-251 -1266)"><circle cx="2.5" cy="2.5" r="2.5" transform="translate(355 1266)" fill="#5e60cf"/></g><g transform="translate(-225 -1266)"><circle cx="2.5" cy="2.5" r="2.5" transform="translate(355 1266)" fill="#5e60cf"/></g><g transform="translate(-199 -1266)"><circle cx="2.5" cy="2.5" r="2.5" transform="translate(355 1266)" fill="#5e60cf"/></g><g transform="translate(-173 -1266)"><circle cx="2.5" cy="2.5" r="2.5" transform="translate(355 1266)" fill="#5e60cf"/></g><g transform="translate(-147 -1266)"><circle cx="2.5" cy="2.5" r="2.5" transform="translate(355 1266)" fill="#5e60cf"/></g><g transform="translate(-121 -1266)"><circle cx="2.5" cy="2.5" r="2.5" transform="translate(355 1266)" fill="#5e60cf"/></g><g transform="translate(-95 -1266)"><circle cx="2.5" cy="2.5" r="2.5" transform="translate(355 1266)" fill="#5e60cf"/></g><g transform="translate(-69 -1266)"><circle cx="2.5" cy="2.5" r="2.5" transform="translate(355 1266)" fill="#5e60cf"/></g><g transform="translate(-43 -1266)"><circle cx="2.5" cy="2.5" r="2.5" transform="translate(355 1266)" fill="#5e60cf"/></g><g transform="translate(-17 -1266)"><circle cx="2.5" cy="2.5" r="2.5" transform="translate(355 1266)" fill="#5e60cf"/></g><g transform="translate(9 -1266)"><circle cx="2.5" cy="2.5" r="2.5" transform="translate(355 1266)" fill="#5e60cf"/></g><g transform="translate(35 -1266)"><circle cx="2.5" cy="2.5" r="2.5" transform="translate(355 1266)" fill="#5e60cf"/></g><g transform="translate(61 -1266)"><circle cx="2.5" cy="2.5" r="2.5" transform="translate(355 1266)" fill="#5e60cf"/></g><g transform="translate(87 -1266)"><circle cx="2.5" cy="2.5" r="2.5" transform="translate(355 1266)" fill="#5e60cf"/></g><g transform="translate(113 -1266)"><circle cx="2.5" cy="2.5" r="2.5" transform="translate(355 1266)" fill="#5e60cf"/></g><g transform="translate(139 -1266)"><circle cx="2.5" cy="2.5" r="2.5" transform="translate(355 1266)" fill="#5e60cf"/></g><g transform="translate(165 -1266)"><circle cx="2.5" cy="2.5" r="2.5" transform="translate(355 1266)" fill="#5e60cf"/></g><g transform="translate(191 -1266)"><circle cx="2.5" cy="2.5" r="2.5" transform="translate(355 1266)" fill="#5e60cf"/></g><g transform="translate(-355 -1240)"><circle cx="2.5" cy="2.5" r="2.5" transform="translate(355 1266)" fill="#5e60cf"/></g><g transform="translate(-329 -1240)"><circle cx="2.5" cy="2.5" r="2.5" transform="translate(355 1266)" fill="#5e60cf"/></g><g transform="translate(-303 -1240)"><circle cx="2.5" cy="2.5" r="2.5" transform="translate(355 1266)" fill="#5e60cf"/></g><g transform="translate(-277 -1240)"><circle cx="2.5" cy="2.5" r="2.5" transform="translate(355 1266)" fill="#5e60cf"/></g><g transform="translate(-251 -1240)"><circle cx="2.5" cy="2.5" r="2.5" transform="translate(355 1266)" fill="#5e60cf"/></g><g transform="translate(-225 -1240)"><circle cx="2.5" cy="2.5" r="2.5" transform="translate(355 1266)" fill="#5e60cf"/></g><g transform="translate(-199 -1240)"><circle cx="2.5" cy="2.5" r="2.5" transform="translate(355 1266)" fill="#5e60cf"/></g><g transform="translate(-173 -1240)"><circle cx="2.5" cy="2.5" r="2.5" transform="translate(355 1266)" fill="#5e60cf"/></g><g transform="translate(-147 -1240)"><circle cx="2.5" cy="2.5" r="2.5" transform="translate(355 1266)" fill="#5e60cf"/></g><g transform="translate(-121 -1240)"><circle cx="2.5" cy="2.5" r="2.5" transform="translate(355 1266)" fill="#5e60cf"/></g><g transform="translate(-95 -1240)"><circle cx="2.5" cy="2.5" r="2.5" transform="translate(355 1266)" fill="#5e60cf"/></g><g transform="translate(-69 -1240)"><circle cx="2.5" cy="2.5" r="2.5" transform="translate(355 1266)" fill="#5e60cf"/></g><g transform="translate(-43 -1240)"><circle cx="2.5" cy="2.5" r="2.5" transform="translate(355 1266)" fill="#5e60cf"/></g><g transform="translate(-17 -1240)"><circle cx="2.5" cy="2.5" r="2.5" transform="translate(355 1266)" fill="#5e60cf"/></g><g transform="translate(9 -1240)"><circle cx="2.5" cy="2.5" r="2.5" transform="translate(355 1266)" fill="#5e60cf"/></g><g transform="translate(35 -1240)"><circle cx="2.5" cy="2.5" r="2.5" transform="translate(355 1266)" fill="#5e60cf"/></g><g transform="translate(61 -1240)"><circle cx="2.5" cy="2.5" r="2.5" transform="translate(355 1266)" fill="#5e60cf"/></g><g transform="translate(87 -1240)"><circle cx="2.5" cy="2.5" r="2.5" transform="translate(355 1266)" fill="#5e60cf"/></g><g transform="translate(113 -1240)"><circle cx="2.5" cy="2.5" r="2.5" transform="translate(355 1266)" fill="#5e60cf"/></g><g transform="translate(139 -1240)"><circle cx="2.5" cy="2.5" r="2.5" transform="translate(355 1266)" fill="#5e60cf"/></g><g transform="translate(165 -1240)"><circle cx="2.5" cy="2.5" r="2.5" transform="translate(355 1266)" fill="#5e60cf"/></g><g transform="translate(191 -1240)"><circle cx="2.5" cy="2.5" r="2.5" transform="translate(355 1266)" fill="#5e60cf"/></g><g transform="translate(-355 -1214)"><circle cx="2.5" cy="2.5" r="2.5" transform="translate(355 1266)" fill="#5e60cf"/></g><g transform="translate(-329 -1214)"><circle cx="2.5" cy="2.5" r="2.5" transform="translate(355 1266)" fill="#5e60cf"/></g><g transform="translate(-303 -1214)"><circle cx="2.5" cy="2.5" r="2.5" transform="translate(355 1266)" fill="#5e60cf"/></g><g transform="translate(-277 -1214)"><circle cx="2.5" cy="2.5" r="2.5" transform="translate(355 1266)" fill="#5e60cf"/></g><g transform="translate(-251 -1214)"><circle cx="2.5" cy="2.5" r="2.5" transform="translate(355 1266)" fill="#5e60cf"/></g><g transform="translate(-225 -1214)"><circle cx="2.5" cy="2.5" r="2.5" transform="translate(355 1266)" fill="#5e60cf"/></g><g transform="translate(-199 -1214)"><circle cx="2.5" cy="2.5" r="2.5" transform="translate(355 1266)" fill="#5e60cf"/></g><g transform="translate(-173 -1214)"><circle cx="2.5" cy="2.5" r="2.5" transform="translate(355 1266)" fill="#5e60cf"/></g><g transform="translate(-147 -1214)"><circle cx="2.5" cy="2.5" r="2.5" transform="translate(355 1266)" fill="#5e60cf"/></g><g transform="translate(-121 -1214)"><circle cx="2.5" cy="2.5" r="2.5" transform="translate(355 1266)" fill="#5e60cf"/></g><g transform="translate(-95 -1214)"><circle cx="2.5" cy="2.5" r="2.5" transform="translate(355 1266)" fill="#5e60cf"/></g><g transform="translate(-69 -1214)"><circle cx="2.5" cy="2.5" r="2.5" transform="translate(355 1266)" fill="#5e60cf"/></g><g transform="translate(-43 -1214)"><circle cx="2.5" cy="2.5" r="2.5" transform="translate(355 1266)" fill="#5e60cf"/></g><g transform="translate(-17 -1214)"><circle cx="2.5" cy="2.5" r="2.5" transform="translate(355 1266)" fill="#5e60cf"/></g><g transform="translate(9 -1214)"><circle cx="2.5" cy="2.5" r="2.5" transform="translate(355 1266)" fill="#5e60cf"/></g><g transform="translate(35 -1214)"><circle cx="2.5" cy="2.5" r="2.5" transform="translate(355 1266)" fill="#5e60cf"/></g><g transform="translate(61 -1214)"><circle cx="2.5" cy="2.5" r="2.5" transform="translate(355 1266)" fill="#5e60cf"/></g><g transform="translate(87 -1214)"><circle cx="2.5" cy="2.5" r="2.5" transform="translate(355 1266)" fill="#5e60cf"/></g><g transform="translate(113 -1214)"><circle cx="2.5" cy="2.5" r="2.5" transform="translate(355 1266)" fill="#5e60cf"/></g><g transform="translate(139 -1214)"><circle cx="2.5" cy="2.5" r="2.5" transform="translate(355 1266)" fill="#5e60cf"/></g><g transform="translate(165 -1214)"><circle cx="2.5" cy="2.5" r="2.5" transform="translate(355 1266)" fill="#5e60cf"/></g><g transform="translate(191 -1214)"><circle cx="2.5" cy="2.5" r="2.5" transform="translate(355 1266)" fill="#5e60cf"/></g><g transform="translate(-355 -1188)"><circle cx="2.5" cy="2.5" r="2.5" transform="translate(355 1266)" fill="#5e60cf"/></g><g transform="translate(-329 -1188)"><circle cx="2.5" cy="2.5" r="2.5" transform="translate(355 1266)" fill="#5e60cf"/></g><g transform="translate(-303 -1188)"><circle cx="2.5" cy="2.5" r="2.5" transform="translate(355 1266)" fill="#5e60cf"/></g><g transform="translate(-277 -1188)"><circle cx="2.5" cy="2.5" r="2.5" transform="translate(355 1266)" fill="#5e60cf"/></g><g transform="translate(-251 -1188)"><circle cx="2.5" cy="2.5" r="2.5" transform="translate(355 1266)" fill="#5e60cf"/></g><g transform="translate(-225 -1188)"><circle cx="2.5" cy="2.5" r="2.5" transform="translate(355 1266)" fill="#5e60cf"/></g><g transform="translate(-199 -1188)"><circle cx="2.5" cy="2.5" r="2.5" transform="translate(355 1266)" fill="#5e60cf"/></g><g transform="translate(-173 -1188)"><circle cx="2.5" cy="2.5" r="2.5" transform="translate(355 1266)" fill="#5e60cf"/></g><g transform="translate(-147 -1188)"><circle cx="2.5" cy="2.5" r="2.5" transform="translate(355 1266)" fill="#5e60cf"/></g><g transform="translate(-121 -1188)"><circle cx="2.5" cy="2.5" r="2.5" transform="translate(355 1266)" fill="#5e60cf"/></g><g transform="translate(-95 -1188)"><circle cx="2.5" cy="2.5" r="2.5" transform="translate(355 1266)" fill="#5e60cf"/></g><g transform="translate(-69 -1188)"><circle cx="2.5" cy="2.5" r="2.5" transform="translate(355 1266)" fill="#5e60cf"/></g><g transform="translate(-43 -1188)"><circle cx="2.5" cy="2.5" r="2.5" transform="translate(355 1266)" fill="#5e60cf"/></g><g transform="translate(-17 -1188)"><circle cx="2.5" cy="2.5" r="2.5" transform="translate(355 1266)" fill="#5e60cf"/></g><g transform="translate(9 -1188)"><circle cx="2.5" cy="2.5" r="2.5" transform="translate(355 1266)" fill="#5e60cf"/></g><g transform="translate(35 -1188)"><circle cx="2.5" cy="2.5" r="2.5" transform="translate(355 1266)" fill="#5e60cf"/></g><g transform="translate(61 -1188)"><circle cx="2.5" cy="2.5" r="2.5" transform="translate(355 1266)" fill="#5e60cf"/></g><g transform="translate(87 -1188)"><circle cx="2.5" cy="2.5" r="2.5" transform="translate(355 1266)" fill="#5e60cf"/></g><g transform="translate(113 -1188)"><circle cx="2.5" cy="2.5" r="2.5" transform="translate(355 1266)" fill="#5e60cf"/></g><g transform="translate(139 -1188)"><circle cx="2.5" cy="2.5" r="2.5" transform="translate(355 1266)" fill="#5e60cf"/></g><g transform="translate(165 -1188)"><circle cx="2.5" cy="2.5" r="2.5" transform="translate(355 1266)" fill="#5e60cf"/></g><g transform="translate(191 -1188)"><circle cx="2.5" cy="2.5" r="2.5" transform="translate(355 1266)" fill="#5e60cf"/></g><g transform="translate(-355 -1162)"><circle cx="2.5" cy="2.5" r="2.5" transform="translate(355 1266)" fill="#5e60cf"/></g><g transform="translate(-329 -1162)"><circle cx="2.5" cy="2.5" r="2.5" transform="translate(355 1266)" fill="#5e60cf"/></g><g transform="translate(-303 -1162)"><circle cx="2.5" cy="2.5" r="2.5" transform="translate(355 1266)" fill="#5e60cf"/></g><g transform="translate(-277 -1162)"><circle cx="2.5" cy="2.5" r="2.5" transform="translate(355 1266)" fill="#5e60cf"/></g><g transform="translate(-251 -1162)"><circle cx="2.5" cy="2.5" r="2.5" transform="translate(355 1266)" fill="#5e60cf"/></g><g transform="translate(-225 -1162)"><circle cx="2.5" cy="2.5" r="2.5" transform="translate(355 1266)" fill="#5e60cf"/></g><g transform="translate(-199 -1162)"><circle cx="2.5" cy="2.5" r="2.5" transform="translate(355 1266)" fill="#5e60cf"/></g><g transform="translate(-173 -1162)"><circle cx="2.5" cy="2.5" r="2.5" transform="translate(355 1266)" fill="#5e60cf"/></g><g transform="translate(-147 -1162)"><circle cx="2.5" cy="2.5" r="2.5" transform="translate(355 1266)" fill="#5e60cf"/></g><g transform="translate(-121 -1162)"><circle cx="2.5" cy="2.5" r="2.5" transform="translate(355 1266)" fill="#5e60cf"/></g><g transform="translate(-95 -1162)"><circle cx="2.5" cy="2.5" r="2.5" transform="translate(355 1266)" fill="#5e60cf"/></g><g transform="translate(-69 -1162)"><circle cx="2.5" cy="2.5" r="2.5" transform="translate(355 1266)" fill="#5e60cf"/></g><g transform="translate(-43 -1162)"><circle cx="2.5" cy="2.5" r="2.5" transform="translate(355 1266)" fill="#5e60cf"/></g><g transform="translate(-17 -1162)"><circle cx="2.5" cy="2.5" r="2.5" transform="translate(355 1266)" fill="#5e60cf"/></g><g transform="translate(9 -1162)"><circle cx="2.5" cy="2.5" r="2.5" transform="translate(355 1266)" fill="#5e60cf"/></g><g transform="translate(35 -1162)"><circle cx="2.5" cy="2.5" r="2.5" transform="translate(355 1266)" fill="#5e60cf"/></g><g transform="translate(61 -1162)"><circle cx="2.5" cy="2.5" r="2.5" transform="translate(355 1266)" fill="#5e60cf"/></g><g transform="translate(87 -1162)"><circle cx="2.5" cy="2.5" r="2.5" transform="translate(355 1266)" fill="#5e60cf"/></g><g transform="translate(113 -1162)"><circle cx="2.5" cy="2.5" r="2.5" transform="translate(355 1266)" fill="#5e60cf"/></g><g transform="translate(139 -1162)"><circle cx="2.5" cy="2.5" r="2.5" transform="translate(355 1266)" fill="#5e60cf"/></g><g transform="translate(165 -1162)"><circle cx="2.5" cy="2.5" r="2.5" transform="translate(355 1266)" fill="#5e60cf"/></g><g transform="translate(191 -1162)"><circle cx="2.5" cy="2.5" r="2.5" transform="translate(355 1266)" fill="#5e60cf"/></g><g transform="translate(-355 -1136)"><circle cx="2.5" cy="2.5" r="2.5" transform="translate(355 1266)" fill="#5e60cf"/></g><g transform="translate(-329 -1136)"><circle cx="2.5" cy="2.5" r="2.5" transform="translate(355 1266)" fill="#5e60cf"/></g><g transform="translate(-303 -1136)"><circle cx="2.5" cy="2.5" r="2.5" transform="translate(355 1266)" fill="#5e60cf"/></g><g transform="translate(-277 -1136)"><circle cx="2.5" cy="2.5" r="2.5" transform="translate(355 1266)" fill="#5e60cf"/></g><g transform="translate(-251 -1136)"><circle cx="2.5" cy="2.5" r="2.5" transform="translate(355 1266)" fill="#5e60cf"/></g><g transform="translate(-225 -1136)"><circle cx="2.5" cy="2.5" r="2.5" transform="translate(355 1266)" fill="#5e60cf"/></g><g transform="translate(-199 -1136)"><circle cx="2.5" cy="2.5" r="2.5" transform="translate(355 1266)" fill="#5e60cf"/></g><g transform="translate(-173 -1136)"><circle cx="2.5" cy="2.5" r="2.5" transform="translate(355 1266)" fill="#5e60cf"/></g><g transform="translate(-147 -1136)"><circle cx="2.5" cy="2.5" r="2.5" transform="translate(355 1266)" fill="#5e60cf"/></g><g transform="translate(-121 -1136)"><circle cx="2.5" cy="2.5" r="2.5" transform="translate(355 1266)" fill="#5e60cf"/></g><g transform="translate(-95 -1136)"><circle cx="2.5" cy="2.5" r="2.5" transform="translate(355 1266)" fill="#5e60cf"/></g><g transform="translate(-69 -1136)"><circle cx="2.5" cy="2.5" r="2.5" transform="translate(355 1266)" fill="#5e60cf"/></g><g transform="translate(-43 -1136)"><circle cx="2.5" cy="2.5" r="2.5" transform="translate(355 1266)" fill="#5e60cf"/></g><g transform="translate(-17 -1136)"><circle cx="2.5" cy="2.5" r="2.5" transform="translate(355 1266)" fill="#5e60cf"/></g><g transform="translate(9 -1136)"><circle cx="2.5" cy="2.5" r="2.5" transform="translate(355 1266)" fill="#5e60cf"/></g><g transform="translate(35 -1136)"><circle cx="2.5" cy="2.5" r="2.5" transform="translate(355 1266)" fill="#5e60cf"/></g><g transform="translate(61 -1136)"><circle cx="2.5" cy="2.5" r="2.5" transform="translate(355 1266)" fill="#5e60cf"/></g><g transform="translate(87 -1136)"><circle cx="2.5" cy="2.5" r="2.5" transform="translate(355 1266)" fill="#5e60cf"/></g><g transform="translate(113 -1136)"><circle cx="2.5" cy="2.5" r="2.5" transform="translate(355 1266)" fill="#5e60cf"/></g><g transform="translate(139 -1136)"><circle cx="2.5" cy="2.5" r="2.5" transform="translate(355 1266)" fill="#5e60cf"/></g><g transform="translate(165 -1136)"><circle cx="2.5" cy="2.5" r="2.5" transform="translate(355 1266)" fill="#5e60cf"/></g><g transform="translate(191 -1136)"><circle cx="2.5" cy="2.5" r="2.5" transform="translate(355 1266)" fill="#5e60cf"/></g><g transform="translate(-355 -1110)"><circle cx="2.5" cy="2.5" r="2.5" transform="translate(355 1266)" fill="#5e60cf"/></g><g transform="translate(-329 -1110)"><circle cx="2.5" cy="2.5" r="2.5" transform="translate(355 1266)" fill="#5e60cf"/></g><g transform="translate(-303 -1110)"><circle cx="2.5" cy="2.5" r="2.5" transform="translate(355 1266)" fill="#5e60cf"/></g><g transform="translate(-277 -1110)"><circle cx="2.5" cy="2.5" r="2.5" transform="translate(355 1266)" fill="#5e60cf"/></g><g transform="translate(-251 -1110)"><circle cx="2.5" cy="2.5" r="2.5" transform="translate(355 1266)" fill="#5e60cf"/></g><g transform="translate(-225 -1110)"><circle cx="2.5" cy="2.5" r="2.5" transform="translate(355 1266)" fill="#5e60cf"/></g><g transform="translate(-199 -1110)"><circle cx="2.5" cy="2.5" r="2.5" transform="translate(355 1266)" fill="#5e60cf"/></g><g transform="translate(-173 -1110)"><circle cx="2.5" cy="2.5" r="2.5" transform="translate(355 1266)" fill="#5e60cf"/></g><g transform="translate(-147 -1110)"><circle cx="2.5" cy="2.5" r="2.5" transform="translate(355 1266)" fill="#5e60cf"/></g><g transform="translate(-121 -1110)"><circle cx="2.5" cy="2.5" r="2.5" transform="translate(355 1266)" fill="#5e60cf"/></g><g transform="translate(-95 -1110)"><circle cx="2.5" cy="2.5" r="2.5" transform="translate(355 1266)" fill="#5e60cf"/></g><g transform="translate(-69 -1110)"><circle cx="2.5" cy="2.5" r="2.5" transform="translate(355 1266)" fill="#5e60cf"/></g><g transform="translate(-43 -1110)"><circle cx="2.5" cy="2.5" r="2.5" transform="translate(355 1266)" fill="#5e60cf"/></g><g transform="translate(-17 -1110)"><circle cx="2.5" cy="2.5" r="2.5" transform="translate(355 1266)" fill="#5e60cf"/></g><g transform="translate(9 -1110)"><circle cx="2.5" cy="2.5" r="2.5" transform="translate(355 1266)" fill="#5e60cf"/></g><g transform="translate(35 -1110)"><circle cx="2.5" cy="2.5" r="2.5" transform="translate(355 1266)" fill="#5e60cf"/></g><g transform="translate(61 -1110)"><circle cx="2.5" cy="2.5" r="2.5" transform="translate(355 1266)" fill="#5e60cf"/></g><g transform="translate(87 -1110)"><circle cx="2.5" cy="2.5" r="2.5" transform="translate(355 1266)" fill="#5e60cf"/></g><g transform="translate(113 -1110)"><circle cx="2.5" cy="2.5" r="2.5" transform="translate(355 1266)" fill="#5e60cf"/></g><g transform="translate(139 -1110)"><circle cx="2.5" cy="2.5" r="2.5" transform="translate(355 1266)" fill="#5e60cf"/></g><g transform="translate(165 -1110)"><circle cx="2.5" cy="2.5" r="2.5" transform="translate(355 1266)" fill="#5e60cf"/></g><g transform="translate(191 -1110)"><circle cx="2.5" cy="2.5" r="2.5" transform="translate(355 1266)" fill="#5e60cf"/></g><g transform="translate(-355 -1084)"><circle cx="2.5" cy="2.5" r="2.5" transform="translate(355 1266)" fill="#5e60cf"/></g><g transform="translate(-329 -1084)"><circle cx="2.5" cy="2.5" r="2.5" transform="translate(355 1266)" fill="#5e60cf"/></g><g transform="translate(-303 -1084)"><circle cx="2.5" cy="2.5" r="2.5" transform="translate(355 1266)" fill="#5e60cf"/></g><g transform="translate(-277 -1084)"><circle cx="2.5" cy="2.5" r="2.5" transform="translate(355 1266)" fill="#5e60cf"/></g><g transform="translate(-251 -1084)"><circle cx="2.5" cy="2.5" r="2.5" transform="translate(355 1266)" fill="#5e60cf"/></g><g transform="translate(-225 -1084)"><circle cx="2.5" cy="2.5" r="2.5" transform="translate(355 1266)" fill="#5e60cf"/></g><g transform="translate(-199 -1084)"><circle cx="2.5" cy="2.5" r="2.5" transform="translate(355 1266)" fill="#5e60cf"/></g><g transform="translate(-173 -1084)"><circle cx="2.5" cy="2.5" r="2.5" transform="translate(355 1266)" fill="#5e60cf"/></g><g transform="translate(-147 -1084)"><circle cx="2.5" cy="2.5" r="2.5" transform="translate(355 1266)" fill="#5e60cf"/></g><g transform="translate(-121 -1084)"><circle cx="2.5" cy="2.5" r="2.5" transform="translate(355 1266)" fill="#5e60cf"/></g><g transform="translate(-95 -1084)"><circle cx="2.5" cy="2.5" r="2.5" transform="translate(355 1266)" fill="#5e60cf"/></g><g transform="translate(-69 -1084)"><circle cx="2.5" cy="2.5" r="2.5" transform="translate(355 1266)" fill="#5e60cf"/></g><g transform="translate(-43 -1084)"><circle cx="2.5" cy="2.5" r="2.5" transform="translate(355 1266)" fill="#5e60cf"/></g><g transform="translate(-17 -1084)"><circle cx="2.5" cy="2.5" r="2.5" transform="translate(355 1266)" fill="#5e60cf"/></g><g transform="translate(9 -1084)"><circle cx="2.5" cy="2.5" r="2.5" transform="translate(355 1266)" fill="#5e60cf"/></g><g transform="translate(35 -1084)"><circle cx="2.5" cy="2.5" r="2.5" transform="translate(355 1266)" fill="#5e60cf"/></g><g transform="translate(61 -1084)"><circle cx="2.5" cy="2.5" r="2.5" transform="translate(355 1266)" fill="#5e60cf"/></g><g transform="translate(87 -1084)"><circle cx="2.5" cy="2.5" r="2.5" transform="translate(355 1266)" fill="#5e60cf"/></g><g transform="translate(113 -1084)"><circle cx="2.5" cy="2.5" r="2.5" transform="translate(355 1266)" fill="#5e60cf"/></g><g transform="translate(139 -1084)"><circle cx="2.5" cy="2.5" r="2.5" transform="translate(355 1266)" fill="#5e60cf"/></g><g transform="translate(165 -1084)"><circle cx="2.5" cy="2.5" r="2.5" transform="translate(355 1266)" fill="#5e60cf"/></g><g transform="translate(191 -1084)"><circle cx="2.5" cy="2.5" r="2.5" transform="translate(355 1266)" fill="#5e60cf"/></g><g transform="translate(-355 -1058)"><circle cx="2.5" cy="2.5" r="2.5" transform="translate(355 1266)" fill="#5e60cf"/></g><g transform="translate(-329 -1058)"><circle cx="2.5" cy="2.5" r="2.5" transform="translate(355 1266)" fill="#5e60cf"/></g><g transform="translate(-303 -1058)"><circle cx="2.5" cy="2.5" r="2.5" transform="translate(355 1266)" fill="#5e60cf"/></g><g transform="translate(-277 -1058)"><circle cx="2.5" cy="2.5" r="2.5" transform="translate(355 1266)" fill="#5e60cf"/></g><g transform="translate(-251 -1058)"><circle cx="2.5" cy="2.5" r="2.5" transform="translate(355 1266)" fill="#5e60cf"/></g><g transform="translate(-225 -1058)"><circle cx="2.5" cy="2.5" r="2.5" transform="translate(355 1266)" fill="#5e60cf"/></g><g transform="translate(-199 -1058)"><circle cx="2.5" cy="2.5" r="2.5" transform="translate(355 1266)" fill="#5e60cf"/></g><g transform="translate(-173 -1058)"><circle cx="2.5" cy="2.5" r="2.5" transform="translate(355 1266)" fill="#5e60cf"/></g><g transform="translate(-147 -1058)"><circle cx="2.5" cy="2.5" r="2.5" transform="translate(355 1266)" fill="#5e60cf"/></g><g transform="translate(-121 -1058)"><circle cx="2.5" cy="2.5" r="2.5" transform="translate(355 1266)" fill="#5e60cf"/></g><g transform="translate(-95 -1058)"><circle cx="2.5" cy="2.5" r="2.5" transform="translate(355 1266)" fill="#5e60cf"/></g><g transform="translate(-69 -1058)"><circle cx="2.5" cy="2.5" r="2.5" transform="translate(355 1266)" fill="#5e60cf"/></g><g transform="translate(-43 -1058)"><circle cx="2.5" cy="2.5" r="2.5" transform="translate(355 1266)" fill="#5e60cf"/></g><g transform="translate(-17 -1058)"><circle cx="2.5" cy="2.5" r="2.5" transform="translate(355 1266)" fill="#5e60cf"/></g><g transform="translate(9 -1058)"><circle cx="2.5" cy="2.5" r="2.5" transform="translate(355 1266)" fill="#5e60cf"/></g><g transform="translate(35 -1058)"><circle cx="2.5" cy="2.5" r="2.5" transform="translate(355 1266)" fill="#5e60cf"/></g><g transform="translate(61 -1058)"><circle cx="2.5" cy="2.5" r="2.5" transform="translate(355 1266)" fill="#5e60cf"/></g><g transform="translate(87 -1058)"><circle cx="2.5" cy="2.5" r="2.5" transform="translate(355 1266)" fill="#5e60cf"/></g><g transform="translate(113 -1058)"><circle cx="2.5" cy="2.5" r="2.5" transform="translate(355 1266)" fill="#5e60cf"/></g><g transform="translate(139 -1058)"><circle cx="2.5" cy="2.5" r="2.5" transform="translate(355 1266)" fill="#5e60cf"/></g><g transform="translate(165 -1058)"><circle cx="2.5" cy="2.5" r="2.5" transform="translate(355 1266)" fill="#5e60cf"/></g><g transform="translate(191 -1058)"><circle cx="2.5" cy="2.5" r="2.5" transform="translate(355 1266)" fill="#5e60cf"/></g><g transform="translate(-355 -1032)"><circle cx="2.5" cy="2.5" r="2.5" transform="translate(355 1266)" fill="#5e60cf"/></g><g transform="translate(-329 -1032)"><circle cx="2.5" cy="2.5" r="2.5" transform="translate(355 1266)" fill="#5e60cf"/></g><g transform="translate(-303 -1032)"><circle cx="2.5" cy="2.5" r="2.5" transform="translate(355 1266)" fill="#5e60cf"/></g><g transform="translate(-277 -1032)"><circle cx="2.5" cy="2.5" r="2.5" transform="translate(355 1266)" fill="#5e60cf"/></g><g transform="translate(-251 -1032)"><circle cx="2.5" cy="2.5" r="2.5" transform="translate(355 1266)" fill="#5e60cf"/></g><g transform="translate(-225 -1032)"><circle cx="2.5" cy="2.5" r="2.5" transform="translate(355 1266)" fill="#5e60cf"/></g><g transform="translate(-199 -1032)"><circle cx="2.5" cy="2.5" r="2.5" transform="translate(355 1266)" fill="#5e60cf"/></g><g transform="translate(-173 -1032)"><circle cx="2.5" cy="2.5" r="2.5" transform="translate(355 1266)" fill="#5e60cf"/></g><g transform="translate(-147 -1032)"><circle cx="2.5" cy="2.5" r="2.5" transform="translate(355 1266)" fill="#5e60cf"/></g><g transform="translate(-121 -1032)"><circle cx="2.5" cy="2.5" r="2.5" transform="translate(355 1266)" fill="#5e60cf"/></g><g transform="translate(-95 -1032)"><circle cx="2.5" cy="2.5" r="2.5" transform="translate(355 1266)" fill="#5e60cf"/></g><g transform="translate(-69 -1032)"><circle cx="2.5" cy="2.5" r="2.5" transform="translate(355 1266)" fill="#5e60cf"/></g><g transform="translate(-43 -1032)"><circle cx="2.5" cy="2.5" r="2.5" transform="translate(355 1266)" fill="#5e60cf"/></g><g transform="translate(-17 -1032)"><circle cx="2.5" cy="2.5" r="2.5" transform="translate(355 1266)" fill="#5e60cf"/></g><g transform="translate(9 -1032)"><circle cx="2.5" cy="2.5" r="2.5" transform="translate(355 1266)" fill="#5e60cf"/></g><g transform="translate(35 -1032)"><circle cx="2.5" cy="2.5" r="2.5" transform="translate(355 1266)" fill="#5e60cf"/></g><g transform="translate(61 -1032)"><circle cx="2.5" cy="2.5" r="2.5" transform="translate(355 1266)" fill="#5e60cf"/></g><g transform="translate(87 -1032)"><circle cx="2.5" cy="2.5" r="2.5" transform="translate(355 1266)" fill="#5e60cf"/></g><g transform="translate(113 -1032)"><circle cx="2.5" cy="2.5" r="2.5" transform="translate(355 1266)" fill="#5e60cf"/></g><g transform="translate(139 -1032)"><circle cx="2.5" cy="2.5" r="2.5" transform="translate(355 1266)" fill="#5e60cf"/></g><g transform="translate(165 -1032)"><circle cx="2.5" cy="2.5" r="2.5" transform="translate(355 1266)" fill="#5e60cf"/></g><g transform="translate(191 -1032)"><circle cx="2.5" cy="2.5" r="2.5" transform="translate(355 1266)" fill="#5e60cf"/></g><g transform="translate(-355 -1006)"><circle cx="2.5" cy="2.5" r="2.5" transform="translate(355 1266)" fill="#5e60cf"/></g><g transform="translate(-329 -1006)"><circle cx="2.5" cy="2.5" r="2.5" transform="translate(355 1266)" fill="#5e60cf"/></g><g transform="translate(-303 -1006)"><circle cx="2.5" cy="2.5" r="2.5" transform="translate(355 1266)" fill="#5e60cf"/></g><g transform="translate(-277 -1006)"><circle cx="2.5" cy="2.5" r="2.5" transform="translate(355 1266)" fill="#5e60cf"/></g><g transform="translate(-251 -1006)"><circle cx="2.5" cy="2.5" r="2.5" transform="translate(355 1266)" fill="#5e60cf"/></g><g transform="translate(-225 -1006)"><circle cx="2.5" cy="2.5" r="2.5" transform="translate(355 1266)" fill="#5e60cf"/></g><g transform="translate(-199 -1006)"><circle cx="2.5" cy="2.5" r="2.5" transform="translate(355 1266)" fill="#5e60cf"/></g><g transform="translate(-173 -1006)"><circle cx="2.5" cy="2.5" r="2.5" transform="translate(355 1266)" fill="#5e60cf"/></g><g transform="translate(-147 -1006)"><circle cx="2.5" cy="2.5" r="2.5" transform="translate(355 1266)" fill="#5e60cf"/></g><g transform="translate(-121 -1006)"><circle cx="2.5" cy="2.5" r="2.5" transform="translate(355 1266)" fill="#5e60cf"/></g><g transform="translate(-95 -1006)"><circle cx="2.5" cy="2.5" r="2.5" transform="translate(355 1266)" fill="#5e60cf"/></g><g transform="translate(-69 -1006)"><circle cx="2.5" cy="2.5" r="2.5" transform="translate(355 1266)" fill="#5e60cf"/></g><g transform="translate(-43 -1006)"><circle cx="2.5" cy="2.5" r="2.5" transform="translate(355 1266)" fill="#5e60cf"/></g><g transform="translate(-17 -1006)"><circle cx="2.5" cy="2.5" r="2.5" transform="translate(355 1266)" fill="#5e60cf"/></g><g transform="translate(9 -1006)"><circle cx="2.5" cy="2.5" r="2.5" transform="translate(355 1266)" fill="#5e60cf"/></g><g transform="translate(35 -1006)"><circle cx="2.5" cy="2.5" r="2.5" transform="translate(355 1266)" fill="#5e60cf"/></g><g transform="translate(61 -1006)"><circle cx="2.5" cy="2.5" r="2.5" transform="translate(355 1266)" fill="#5e60cf"/></g><g transform="translate(87 -1006)"><circle cx="2.5" cy="2.5" r="2.5" transform="translate(355 1266)" fill="#5e60cf"/></g><g transform="translate(113 -1006)"><circle cx="2.5" cy="2.5" r="2.5" transform="translate(355 1266)" fill="#5e60cf"/></g><g transform="translate(139 -1006)"><circle cx="2.5" cy="2.5" r="2.5" transform="translate(355 1266)" fill="#5e60cf"/></g><g transform="translate(165 -1006)"><circle cx="2.5" cy="2.5" r="2.5" transform="translate(355 1266)" fill="#5e60cf"/></g><g transform="translate(191 -1006)"><circle cx="2.5" cy="2.5" r="2.5" transform="translate(355 1266)" fill="#5e60cf"/></g><g transform="translate(-355 -980)"><circle cx="2.5" cy="2.5" r="2.5" transform="translate(355 1266)" fill="#5e60cf"/></g><g transform="translate(-329 -980)"><circle cx="2.5" cy="2.5" r="2.5" transform="translate(355 1266)" fill="#5e60cf"/></g><g transform="translate(-303 -980)"><circle cx="2.5" cy="2.5" r="2.5" transform="translate(355 1266)" fill="#5e60cf"/></g><g transform="translate(-277 -980)"><circle cx="2.5" cy="2.5" r="2.5" transform="translate(355 1266)" fill="#5e60cf"/></g><g transform="translate(-251 -980)"><circle cx="2.5" cy="2.5" r="2.5" transform="translate(355 1266)" fill="#5e60cf"/></g><g transform="translate(-225 -980)"><circle cx="2.5" cy="2.5" r="2.5" transform="translate(355 1266)" fill="#5e60cf"/></g><g transform="translate(-199 -980)"><circle cx="2.5" cy="2.5" r="2.5" transform="translate(355 1266)" fill="#5e60cf"/></g><g transform="translate(-173 -980)"><circle cx="2.5" cy="2.5" r="2.5" transform="translate(355 1266)" fill="#5e60cf"/></g><g transform="translate(-147 -980)"><circle cx="2.5" cy="2.5" r="2.5" transform="translate(355 1266)" fill="#5e60cf"/></g><g transform="translate(-121 -980)"><circle cx="2.5" cy="2.5" r="2.5" transform="translate(355 1266)" fill="#5e60cf"/></g><g transform="translate(-95 -980)"><circle cx="2.5" cy="2.5" r="2.5" transform="translate(355 1266)" fill="#5e60cf"/></g><g transform="translate(-69 -980)"><circle cx="2.5" cy="2.5" r="2.5" transform="translate(355 1266)" fill="#5e60cf"/></g><g transform="translate(-43 -980)"><circle cx="2.5" cy="2.5" r="2.5" transform="translate(355 1266)" fill="#5e60cf"/></g><g transform="translate(-17 -980)"><circle cx="2.5" cy="2.5" r="2.5" transform="translate(355 1266)" fill="#5e60cf"/></g><g transform="translate(9 -980)"><circle cx="2.5" cy="2.5" r="2.5" transform="translate(355 1266)" fill="#5e60cf"/></g><g transform="translate(35 -980)"><circle cx="2.5" cy="2.5" r="2.5" transform="translate(355 1266)" fill="#5e60cf"/></g><g transform="translate(61 -980)"><circle cx="2.5" cy="2.5" r="2.5" transform="translate(355 1266)" fill="#5e60cf"/></g><g transform="translate(87 -980)"><circle cx="2.5" cy="2.5" r="2.5" transform="translate(355 1266)" fill="#5e60cf"/></g><g transform="translate(113 -980)"><circle cx="2.5" cy="2.5" r="2.5" transform="translate(355 1266)" fill="#5e60cf"/></g><g transform="translate(139 -980)"><circle cx="2.5" cy="2.5" r="2.5" transform="translate(355 1266)" fill="#5e60cf"/></g><g transform="translate(165 -980)"><circle cx="2.5" cy="2.5" r="2.5" transform="translate(355 1266)" fill="#5e60cf"/></g><g transform="translate(191 -980)"><circle cx="2.5" cy="2.5" r="2.5" transform="translate(355 1266)" fill="#5e60cf"/></g><g transform="translate(-355 -954)"><circle cx="2.5" cy="2.5" r="2.5" transform="translate(355 1266)" fill="#5e60cf"/></g><g transform="translate(-329 -954)"><circle cx="2.5" cy="2.5" r="2.5" transform="translate(355 1266)" fill="#5e60cf"/></g><g transform="translate(-303 -954)"><circle cx="2.5" cy="2.5" r="2.5" transform="translate(355 1266)" fill="#5e60cf"/></g><g transform="translate(-277 -954)"><circle cx="2.5" cy="2.5" r="2.5" transform="translate(355 1266)" fill="#5e60cf"/></g><g transform="translate(-251 -954)"><circle cx="2.5" cy="2.5" r="2.5" transform="translate(355 1266)" fill="#5e60cf"/></g><g transform="translate(-225 -954)"><circle cx="2.5" cy="2.5" r="2.5" transform="translate(355 1266)" fill="#5e60cf"/></g><g transform="translate(-199 -954)"><circle cx="2.5" cy="2.5" r="2.5" transform="translate(355 1266)" fill="#5e60cf"/></g><g transform="translate(-173 -954)"><circle cx="2.5" cy="2.5" r="2.5" transform="translate(355 1266)" fill="#5e60cf"/></g><g transform="translate(-147 -954)"><circle cx="2.5" cy="2.5" r="2.5" transform="translate(355 1266)" fill="#5e60cf"/></g><g transform="translate(-121 -954)"><circle cx="2.5" cy="2.5" r="2.5" transform="translate(355 1266)" fill="#5e60cf"/></g><g transform="translate(-95 -954)"><circle cx="2.5" cy="2.5" r="2.5" transform="translate(355 1266)" fill="#5e60cf"/></g><g transform="translate(-69 -954)"><circle cx="2.5" cy="2.5" r="2.5" transform="translate(355 1266)" fill="#5e60cf"/></g><g transform="translate(-43 -954)"><circle cx="2.5" cy="2.5" r="2.5" transform="translate(355 1266)" fill="#5e60cf"/></g><g transform="translate(-17 -954)"><circle cx="2.5" cy="2.5" r="2.5" transform="translate(355 1266)" fill="#5e60cf"/></g><g transform="translate(9 -954)"><circle cx="2.5" cy="2.5" r="2.5" transform="translate(355 1266)" fill="#5e60cf"/></g><g transform="translate(35 -954)"><circle cx="2.5" cy="2.5" r="2.5" transform="translate(355 1266)" fill="#5e60cf"/></g><g transform="translate(61 -954)"><circle cx="2.5" cy="2.5" r="2.5" transform="translate(355 1266)" fill="#5e60cf"/></g><g transform="translate(87 -954)"><circle cx="2.5" cy="2.5" r="2.5" transform="translate(355 1266)" fill="#5e60cf"/></g><g transform="translate(113 -954)"><circle cx="2.5" cy="2.5" r="2.5" transform="translate(355 1266)" fill="#5e60cf"/></g><g transform="translate(139 -954)"><circle cx="2.5" cy="2.5" r="2.5" transform="translate(355 1266)" fill="#5e60cf"/></g><g transform="translate(165 -954)"><circle cx="2.5" cy="2.5" r="2.5" transform="translate(355 1266)" fill="#5e60cf"/></g><g transform="translate(191 -954)"><circle cx="2.5" cy="2.5" r="2.5" transform="translate(355 1266)" fill="#5e60cf"/></g><g transform="translate(-355 -928)"><circle cx="2.5" cy="2.5" r="2.5" transform="translate(355 1266)" fill="#5e60cf"/></g><g transform="translate(-329 -928)"><circle cx="2.5" cy="2.5" r="2.5" transform="translate(355 1266)" fill="#5e60cf"/></g><g transform="translate(-303 -928)"><circle cx="2.5" cy="2.5" r="2.5" transform="translate(355 1266)" fill="#5e60cf"/></g><g transform="translate(-277 -928)"><circle cx="2.5" cy="2.5" r="2.5" transform="translate(355 1266)" fill="#5e60cf"/></g><g transform="translate(-251 -928)"><circle cx="2.5" cy="2.5" r="2.5" transform="translate(355 1266)" fill="#5e60cf"/></g><g transform="translate(-225 -928)"><circle cx="2.5" cy="2.5" r="2.5" transform="translate(355 1266)" fill="#5e60cf"/></g><g transform="translate(-199 -928)"><circle cx="2.5" cy="2.5" r="2.5" transform="translate(355 1266)" fill="#5e60cf"/></g><g transform="translate(-173 -928)"><circle cx="2.5" cy="2.5" r="2.5" transform="translate(355 1266)" fill="#5e60cf"/></g><g transform="translate(-147 -928)"><circle cx="2.5" cy="2.5" r="2.5" transform="translate(355 1266)" fill="#5e60cf"/></g><g transform="translate(-121 -928)"><circle cx="2.5" cy="2.5" r="2.5" transform="translate(355 1266)" fill="#5e60cf"/></g><g transform="translate(-95 -928)"><circle cx="2.5" cy="2.5" r="2.5" transform="translate(355 1266)" fill="#5e60cf"/></g><g transform="translate(-69 -928)"><circle cx="2.5" cy="2.5" r="2.5" transform="translate(355 1266)" fill="#5e60cf"/></g><g transform="translate(-43 -928)"><circle cx="2.5" cy="2.5" r="2.5" transform="translate(355 1266)" fill="#5e60cf"/></g><g transform="translate(-17 -928)"><circle cx="2.5" cy="2.5" r="2.5" transform="translate(355 1266)" fill="#5e60cf"/></g><g transform="translate(9 -928)"><circle cx="2.5" cy="2.5" r="2.5" transform="translate(355 1266)" fill="#5e60cf"/></g><g transform="translate(35 -928)"><circle cx="2.5" cy="2.5" r="2.5" transform="translate(355 1266)" fill="#5e60cf"/></g><g transform="translate(61 -928)"><circle cx="2.5" cy="2.5" r="2.5" transform="translate(355 1266)" fill="#5e60cf"/></g><g transform="translate(87 -928)"><circle cx="2.5" cy="2.5" r="2.5" transform="translate(355 1266)" fill="#5e60cf"/></g><g transform="translate(113 -928)"><circle cx="2.5" cy="2.5" r="2.5" transform="translate(355 1266)" fill="#5e60cf"/></g><g transform="translate(139 -928)"><circle cx="2.5" cy="2.5" r="2.5" transform="translate(355 1266)" fill="#5e60cf"/></g><g transform="translate(165 -928)"><circle cx="2.5" cy="2.5" r="2.5" transform="translate(355 1266)" fill="#5e60cf"/></g><g transform="translate(191 -928)"><circle cx="2.5" cy="2.5" r="2.5" transform="translate(355 1266)" fill="#5e60cf"/></g><g transform="translate(-355 -902)"><circle cx="2.5" cy="2.5" r="2.5" transform="translate(355 1266)" fill="#5e60cf"/></g><g transform="translate(-329 -902)"><circle cx="2.5" cy="2.5" r="2.5" transform="translate(355 1266)" fill="#5e60cf"/></g><g transform="translate(-303 -902)"><circle cx="2.5" cy="2.5" r="2.5" transform="translate(355 1266)" fill="#5e60cf"/></g><g transform="translate(-277 -902)"><circle cx="2.5" cy="2.5" r="2.5" transform="translate(355 1266)" fill="#5e60cf"/></g><g transform="translate(-251 -902)"><circle cx="2.5" cy="2.5" r="2.5" transform="translate(355 1266)" fill="#5e60cf"/></g><g transform="translate(-225 -902)"><circle cx="2.5" cy="2.5" r="2.5" transform="translate(355 1266)" fill="#5e60cf"/></g><g transform="translate(-199 -902)"><circle cx="2.5" cy="2.5" r="2.5" transform="translate(355 1266)" fill="#5e60cf"/></g><g transform="translate(-173 -902)"><circle cx="2.5" cy="2.5" r="2.5" transform="translate(355 1266)" fill="#5e60cf"/></g><g transform="translate(-147 -902)"><circle cx="2.5" cy="2.5" r="2.5" transform="translate(355 1266)" fill="#5e60cf"/></g><g transform="translate(-121 -902)"><circle cx="2.5" cy="2.5" r="2.5" transform="translate(355 1266)" fill="#5e60cf"/></g><g transform="translate(-95 -902)"><circle cx="2.5" cy="2.5" r="2.5" transform="translate(355 1266)" fill="#5e60cf"/></g><g transform="translate(-69 -902)"><circle cx="2.5" cy="2.5" r="2.5" transform="translate(355 1266)" fill="#5e60cf"/></g><g transform="translate(-43 -902)"><circle cx="2.5" cy="2.5" r="2.5" transform="translate(355 1266)" fill="#5e60cf"/></g><g transform="translate(-17 -902)"><circle cx="2.5" cy="2.5" r="2.5" transform="translate(355 1266)" fill="#5e60cf"/></g><g transform="translate(9 -902)"><circle cx="2.5" cy="2.5" r="2.5" transform="translate(355 1266)" fill="#5e60cf"/></g><g transform="translate(35 -902)"><circle cx="2.5" cy="2.5" r="2.5" transform="translate(355 1266)" fill="#5e60cf"/></g><g transform="translate(61 -902)"><circle cx="2.5" cy="2.5" r="2.5" transform="translate(355 1266)" fill="#5e60cf"/></g><g transform="translate(87 -902)"><circle cx="2.5" cy="2.5" r="2.5" transform="translate(355 1266)" fill="#5e60cf"/></g><g transform="translate(113 -902)"><circle cx="2.5" cy="2.5" r="2.5" transform="translate(355 1266)" fill="#5e60cf"/></g><g transform="translate(139 -902)"><circle cx="2.5" cy="2.5" r="2.5" transform="translate(355 1266)" fill="#5e60cf"/></g><g transform="translate(165 -902)"><circle cx="2.5" cy="2.5" r="2.5" transform="translate(355 1266)" fill="#5e60cf"/></g><g transform="translate(191 -902)"><circle cx="2.5" cy="2.5" r="2.5" transform="translate(355 1266)" fill="#5e60cf"/></g></g></svg>