<svg xmlns="http://www.w3.org/2000/svg" width="139.29" height="57.106" viewBox="0 0 139.29 57.106"><g transform="translate(-228.96 -107.995)"><path d="M350.831,124.779c-4.993,0-7.489-4.145-9.684-7.8-2.074-3.45-4.027-6.705-7.735-6.705s-5.665,3.255-7.728,6.705c-2.2,3.659-4.691,7.8-9.685,7.8s-7.483-4.145-9.678-7.8c-2.069-3.45-4.025-6.705-7.737-6.705s-5.663,3.255-7.736,6.705c-2.187,3.659-4.682,7.8-9.677,7.8s-7.481-4.145-9.674-7.8c-2.063-3.45-4.022-6.705-7.73-6.705s-5.658,3.255-7.728,6.705c-2.194,3.659-4.683,7.8-9.677,7.8s-7.483-4.145-9.676-7.8c-2.071-3.45-4.019-6.705-7.726-6.705V108c5,0,7.48,4.148,9.673,7.808,2.076,3.449,4.022,6.705,7.729,6.705s5.668-3.256,7.729-6.705c2.2-3.66,4.682-7.808,9.676-7.808s7.486,4.148,9.679,7.808c2.071,3.449,4.018,6.705,7.725,6.705s5.668-3.256,7.729-6.705c2.2-3.66,4.691-7.808,9.684-7.808s7.484,4.148,9.686,7.808c2.063,3.449,4.021,6.705,7.729,6.705s5.667-3.256,7.737-6.705c2.192-3.66,4.683-7.808,9.676-7.808s7.489,4.148,9.684,7.808c2.07,3.449,4.025,6.705,7.735,6.705s5.665-3.256,7.735-6.7c2.2-3.664,4.682-7.812,9.684-7.812v2.275c-3.714,0-5.662,3.255-7.733,6.705C358.311,120.634,355.823,124.779,350.831,124.779Z" fill="#f21689"/><path d="M350.831,144.94c-4.993,0-7.489-4.145-9.684-7.8-2.074-3.449-4.027-6.705-7.735-6.705s-5.665,3.256-7.728,6.705c-2.2,3.659-4.691,7.8-9.685,7.8s-7.483-4.145-9.678-7.8c-2.069-3.449-4.025-6.705-7.737-6.705s-5.663,3.256-7.736,6.705c-2.187,3.659-4.682,7.8-9.677,7.8s-7.481-4.145-9.674-7.8c-2.063-3.449-4.022-6.705-7.73-6.705s-5.658,3.256-7.728,6.705c-2.194,3.659-4.683,7.8-9.677,7.8s-7.483-4.145-9.676-7.8c-2.071-3.449-4.019-6.705-7.726-6.705v-2.275c5,0,7.48,4.149,9.673,7.809,2.076,3.445,4.022,6.7,7.729,6.7s5.668-3.259,7.729-6.7c2.2-3.66,4.682-7.809,9.676-7.809s7.486,4.149,9.679,7.809c2.071,3.445,4.018,6.7,7.725,6.7s5.668-3.259,7.729-6.7c2.2-3.66,4.691-7.809,9.684-7.809s7.484,4.149,9.686,7.809c2.063,3.445,4.021,6.7,7.729,6.7s5.667-3.259,7.737-6.7c2.192-3.66,4.683-7.809,9.676-7.809s7.489,4.149,9.684,7.809c2.07,3.445,4.025,6.7,7.735,6.7s5.665-3.259,7.735-6.7c2.2-3.663,4.682-7.812,9.684-7.812v2.275c-3.714,0-5.662,3.256-7.733,6.705C358.311,140.795,355.823,144.94,350.831,144.94Z" fill="#f21689"/><path d="M350.831,165.1c-4.993,0-7.489-4.145-9.684-7.8-2.074-3.449-4.027-6.705-7.735-6.705s-5.665,3.256-7.728,6.705c-2.2,3.659-4.691,7.8-9.685,7.8s-7.483-4.145-9.678-7.8c-2.069-3.449-4.025-6.705-7.737-6.705s-5.663,3.256-7.736,6.705c-2.187,3.659-4.682,7.8-9.677,7.8s-7.481-4.145-9.674-7.8c-2.063-3.449-4.022-6.705-7.73-6.705s-5.658,3.256-7.728,6.705c-2.194,3.659-4.683,7.8-9.677,7.8s-7.483-4.145-9.676-7.8c-2.071-3.449-4.019-6.705-7.726-6.705v-2.275c5,0,7.48,4.149,9.673,7.806,2.076,3.448,4.022,6.708,7.729,6.708s5.668-3.26,7.729-6.708c2.2-3.657,4.682-7.806,9.676-7.806s7.486,4.149,9.679,7.806c2.071,3.448,4.018,6.708,7.725,6.708s5.668-3.26,7.729-6.708c2.2-3.657,4.691-7.806,9.684-7.806s7.484,4.149,9.686,7.806c2.063,3.448,4.021,6.708,7.729,6.708s5.667-3.26,7.737-6.708c2.192-3.657,4.683-7.806,9.676-7.806s7.489,4.149,9.684,7.806c2.07,3.448,4.025,6.708,7.735,6.708s5.665-3.26,7.735-6.7c2.2-3.66,4.682-7.809,9.684-7.809v2.275c-3.714,0-5.662,3.256-7.733,6.705C358.311,160.956,355.823,165.1,350.831,165.1Z" fill="#f21689"/></g></svg>