<svg xmlns="http://www.w3.org/2000/svg" width="79.061" height="93.717" viewBox="0 0 79.061 93.717">
  <g id="Groupe_365" data-name="Groupe 365" transform="translate(-1210.222 -1396.16)">
    <path id="Tracé_219" data-name="Tracé 219" d="M33.538,5.235C49.37,1.054,57.868-.914,63.327.407S79.973,7.664,79.973,19.8c0,20.1-18.213,37.341-38.312,37.341S0,37.232,0,17.133,17.706,9.417,33.538,5.235Z" transform="translate(1264.57 1396.16) rotate(72)" fill="#56cee0" opacity="0.247"/>
    <path id="Tracé_352" data-name="Tracé 352" d="M7.218,958.363A1.343,1.343,0,0,0,6,959.706v41.62a1.343,1.343,0,0,0,1.344,1.343H31.663a16.666,16.666,0,0,0,5.229,10.279A16.723,16.723,0,0,0,60.12,988.886q-.019-.053-.042-.1c-.01-.009.01-.032,0-.042a1.337,1.337,0,0,0-.1-.147c-.027-.026-.015-.079-.042-.1a1.334,1.334,0,0,0-.147-.147c-.143-.133-.337-.146-.483-.273q-.051-.034-.105-.063a16.987,16.987,0,0,0-8.841-3.965V959.706a1.343,1.343,0,0,0-1.344-1.343H7.344q-.063,0-.126,0Zm1.47,2.685H47.666v22.866a16.775,16.775,0,0,0-11,4.657H16.08q-.063,0-.126,0a1.344,1.344,0,1,0,.126,2.685H34.393a16.726,16.726,0,0,0-2.835,8.727H8.688V961.049Zm7.266,8.727a1.344,1.344,0,1,0,.126,2.685H40.274a1.343,1.343,0,1,0,0-2.685H16.08Q16.018,969.772,15.954,969.775Zm0,9.4a1.344,1.344,0,1,0,.126,2.685H40.274a1.343,1.343,0,1,0,0-2.685H16.08Q16.018,979.17,15.954,979.173Zm31.858,7.384a14.124,14.124,0,0,1,10.038,3.734c.028.026.078.016.105.042s.055.057.084.084a14.107,14.107,0,1,1-10.227-3.86Zm7.077,6.021a1.344,1.344,0,0,0-.966.629l-7.98,12.251-3.549-2.538a1.343,1.343,0,1,0-1.554,2.182l4.7,3.356a1.345,1.345,0,0,0,1.911-.378l8.736-13.426a1.343,1.343,0,0,0-1.3-2.077Z" transform="translate(1213 454.103)"/>
  </g>
</svg>
