<svg xmlns="http://www.w3.org/2000/svg" width="89.995" height="85.88" viewBox="0 0 89.995 85.88">
  <g id="Groupe_369" data-name="Groupe 369" transform="translate(-347.662 -1400.034)">
    <path id="Tracé_11" data-name="Tracé 11" d="M30.717,4.795C45.217.965,53-.837,58,.373S73.246,7.02,73.246,18.138c0,18.408-16.681,34.2-35.089,34.2S0,34.1,0,15.692,16.217,8.625,30.717,4.795Z" transform="matrix(0.799, -0.602, 0.602, 0.799, 347.662, 1444.115)" fill="#56cee0" opacity="0.249"/>
    <g id="noun_Computer_3354426" transform="translate(359.896 1404.724)">
      <path id="Tracé_353" data-name="Tracé 353" d="M57.783,8.82H10.426A5.433,5.433,0,0,0,5,14.246V46.494a4.327,4.327,0,0,0,4.327,4.327H26.738l-.834,2.1h0L22.87,60.38a1.235,1.235,0,0,0,1.145,1.7H44.188a1.235,1.235,0,0,0,1.145-1.7l-3.027-7.464h0l-.834-2.07H58.882a4.327,4.327,0,0,0,4.327-4.353V14.246A5.433,5.433,0,0,0,57.783,8.82ZM42.351,59.611H25.858l2.024-5h12.45ZM28.879,52.134l.53-1.294H38.8l.53,1.294Zm31.853-5.64a1.85,1.85,0,0,1-1.85,1.85H9.327a1.85,1.85,0,0,1-1.85-1.85V43.758H60.732Zm0-5.213H7.477V14.246A2.949,2.949,0,0,1,10.426,11.3H57.783a2.949,2.949,0,0,1,2.949,2.949Z"/>
      <path id="Tracé_354" data-name="Tracé 354" d="M48.034,66.947H49.7a1.239,1.239,0,0,0,0-2.477H48.034a1.239,1.239,0,0,0,0,2.477Z" transform="translate(-14.763 -19.657)"/>
    </g>
  </g>
</svg>
