<svg xmlns="http://www.w3.org/2000/svg" width="92.626" height="76.975" viewBox="0 0 92.626 76.975">
  <g id="Groupe_364" data-name="Groupe 364" transform="translate(-1486.753 -1412.864)">
    <path id="Tracé_222" data-name="Tracé 222" d="M33.538,5.235C49.37,1.054,57.868-.914,63.327.407S79.973,7.664,79.973,19.8c0,20.1-18.213,37.341-38.312,37.341S0,37.232,0,17.133,17.706,9.417,33.538,5.235Z" transform="translate(1502.504 1412.864) rotate(16)" fill="#56cee0" opacity="0.245"/>
    <g id="noun_price_3325274" transform="translate(1500 1408.51)">
      <g id="Groupe_269" data-name="Groupe 269">
        <path id="Tracé_355" data-name="Tracé 355" d="M55.31,8.69a10.88,10.88,0,0,0-17.45,2.84,1.5,1.5,0,0,0,2.68,1.34,7.9,7.9,0,1,1,7.28,11.4L47.39,18A1.5,1.5,0,0,0,46,16.61L28.81,15.42a1.44,1.44,0,0,0-1.16.44L5.94,37.56a1.51,1.51,0,0,0,0,2.12L24.32,58.06a1.49,1.49,0,0,0,1.06.44,1.53,1.53,0,0,0,1.06-.44l21.7-21.71a1.48,1.48,0,0,0,.44-1.16L48,27.26A10.87,10.87,0,0,0,55.31,8.69ZM25.38,54.88,9.12,38.62,29.29,18.46l15.2,1.05.29,4.25A7.87,7.87,0,0,1,42,22a1.51,1.51,0,0,0-2.1,2.1A10.8,10.8,0,0,0,45,27l.54,7.76Z"/>
      </g>
    </g>
  </g>
</svg>
