<svg xmlns="http://www.w3.org/2000/svg" width="97.224" height="96.66" viewBox="0 0 97.224 96.66">
  <g id="Groupe_367" data-name="Groupe 367" transform="translate(-627.405 -1386.355)">
    <path id="Tracé_19" data-name="Tracé 19" d="M33.538,5.235C49.37,1.054,57.868-.914,63.327.407S79.973,7.664,79.973,19.8c0,20.1-18.213,37.341-38.312,37.341S0,37.232,0,17.133,17.706,9.417,33.538,5.235Z" transform="matrix(-0.719, -0.695, 0.695, -0.719, 684.933, 1483.016)" fill="#56cee0" opacity="0.253"/>
    <g id="noun_measuring_947890" transform="translate(913.758 1275.175)">
      <g id="Groupe_267" data-name="Groupe 267" transform="translate(-258 131.999)">
        <path id="Tracé_351" data-name="Tracé 351" d="M12.582,7A.717.717,0,0,0,12,7.717V67.935a.717.717,0,0,0,.717.717H29.922a.717.717,0,0,0,.717-.717V55.547l10.216-2.688a.717.717,0,0,0,.314-.179L65.587,29a2.975,2.975,0,0,0,.045-4.212L58.15,17.193a2.922,2.922,0,0,0-4.189.022L30.639,41.1V7.717A.717.717,0,0,0,29.922,7H12.717q-.034,0-.067,0T12.582,7Zm.851,1.434H29.205V44.771l-2.845,10.8a.717.717,0,0,0,.874.874l1.971-.515V67.218H13.434V56.465H21.32a.717.717,0,1,0,0-1.434H13.434V44.278H21.32a.717.717,0,1,0,0-1.434H13.434V32.091H21.32a.717.717,0,1,0,0-1.434H13.434V19.9H21.32a.717.717,0,1,0,0-1.434H13.434Zm42.655,9.32a1.41,1.41,0,0,1,1.031.426L64.6,25.773a1.568,1.568,0,0,1,0,2.2l-3.9,3.764-9.566-9.566L54.991,18.2A1.5,1.5,0,0,1,56.089,17.753ZM50.13,23.2l2.442,2.42L33.865,44.323,31.647,42.1Zm3.45,3.428L56.156,29.2,37.45,47.907l-2.576-2.554Zm3.584,3.607L59.7,32.74,40.676,51.156l-2.218-2.218ZM31.02,43.494l8.267,8.289L28.063,54.74Z" transform="translate(-12 -6.999)" stroke="#000" stroke-width="1"/>
      </g>
    </g>
  </g>
</svg>
