<svg xmlns="http://www.w3.org/2000/svg" xmlns:xlink="http://www.w3.org/1999/xlink" width="141.373" height="66" viewBox="0 0 141.373 66">
  <defs>
    <linearGradient id="linear-gradient" x1="0.5" x2="0.558" y2="0.934" gradientUnits="objectBoundingBox">
      <stop offset="0" stop-color="#5e60cf"/>
      <stop offset="1" stop-color="#518fd8"/>
    </linearGradient>
    <linearGradient id="linear-gradient-2" x1="0.858" y1="1.381" x2="0" gradientUnits="objectBoundingBox">
      <stop offset="0" stop-color="#518fd8"/>
      <stop offset="1" stop-color="#5e60cf"/>
      <stop offset="1" stop-color="#2f3068"/>
    </linearGradient>
    <linearGradient id="linear-gradient-3" x1="0.727" y1="-0.546" x2="2.773" y2="1.181" xlink:href="#linear-gradient"/>
  </defs>
  <g id="Groupe_435" data-name="Groupe 435" transform="translate(-1742 -547.001)">
    <g id="Groupe_418" data-name="Groupe 418" transform="translate(0 13)">
      <path id="Soustraction_9" data-name="Soustraction 9" d="M-12466-8801a18.92,18.92,0,0,1-7.4-1.491,18.956,18.956,0,0,1-6.039-4.074c-.347-.346-.687-.712-1.011-1.09a13.014,13.014,0,0,0,3.548.49,12.85,12.85,0,0,0,9.148-3.79,12.856,12.856,0,0,0,3.788-9.146,12.86,12.86,0,0,0-3.788-9.152,12.849,12.849,0,0,0-9.148-3.787,13.006,13.006,0,0,0-3.31.425c.258-.289.518-.563.772-.817a18.959,18.959,0,0,1,6.039-4.073,18.907,18.907,0,0,1,7.4-1.492,18.885,18.885,0,0,1,7.4,1.492,18.979,18.979,0,0,1,6.04,4.073,18.948,18.948,0,0,1,4.069,6.039,18.815,18.815,0,0,1,1.5,7.394,18.821,18.821,0,0,1-1.5,7.4,18.957,18.957,0,0,1-4.069,6.039,18.95,18.95,0,0,1-6.04,4.074A18.894,18.894,0,0,1-12466-8801Z" transform="translate(14247 9387)" fill="url(#linear-gradient)"/>
      <path id="Soustraction_11" data-name="Soustraction 11" d="M-12481-8795a32.8,32.8,0,0,1-12.846-2.594,32.906,32.906,0,0,1-10.49-7.072,32.905,32.905,0,0,1-7.072-10.491A32.789,32.789,0,0,1-12514-8828a32.777,32.777,0,0,1,2.593-12.844,32.917,32.917,0,0,1,7.072-10.49,32.9,32.9,0,0,1,10.49-7.071A32.79,32.79,0,0,1-12481-8861a33.106,33.106,0,0,1,8.292,1.051,32.811,32.811,0,0,1,7.518,2.976A30.11,30.11,0,0,0-12473-8858a29.808,29.808,0,0,0-11.678,2.357,29.907,29.907,0,0,0-9.535,6.43,29.894,29.894,0,0,0-6.429,9.535A29.807,29.807,0,0,0-12503-8828a29.816,29.816,0,0,0,2.357,11.679,29.885,29.885,0,0,0,6.429,9.534,29.883,29.883,0,0,0,9.535,6.429A29.808,29.808,0,0,0-12473-8798a30.069,30.069,0,0,0,7.818-1.028,32.835,32.835,0,0,1-7.521,2.979A33.083,33.083,0,0,1-12481-8795Z" transform="translate(14256 9395)" fill="url(#linear-gradient-2)"/>
    </g>
    <g id="Groupe_421" data-name="Groupe 421" transform="translate(76 -50)">
      <g id="Groupe_120" data-name="Groupe 120" transform="translate(1735 622.837)">
        <g id="ONIRÉ" transform="translate(0 0)" style="isolation: isolate">
          <g id="Groupe_270" data-name="Groupe 270" style="isolation: isolate">
            <path id="Tracé_356" data-name="Tracé 356" d="M395.9,907.922a8.56,8.56,0,0,1,2.592-6.494,9.113,9.113,0,0,1,12.479,0,9.4,9.4,0,0,1,0,12.963,9.112,9.112,0,0,1-12.479,0A8.529,8.529,0,0,1,395.9,907.922Zm5.064-4.253a6.389,6.389,0,0,0,0,8.456,5.509,5.509,0,0,0,7.535,0,6.389,6.389,0,0,0,0-8.456,5.507,5.507,0,0,0-7.535,0Z" transform="translate(-395.898 -898.957)" fill="url(#linear-gradient-3)"/>
            <path id="Tracé_357" data-name="Tracé 357" d="M447.063,916.78H443.55l-7.8-12.188V916.78H432.4V899.6h4.167l7.148,11.364V899.6h3.343Z" transform="translate(-411.834 -899.238)" fill="url(#linear-gradient-3)"/>
            <path id="Tracé_358" data-name="Tracé 358" d="M468.777,916.78h-3.392V899.6h3.392Z" transform="translate(-426.231 -899.238)" fill="url(#linear-gradient-3)"/>
            <path id="Tracé_359" data-name="Tracé 359" d="M486.851,916.78l-3.368-6.615h-1.745v6.615H478.37V899.6h6.712a5.374,5.374,0,0,1,3.974,1.5,5.125,5.125,0,0,1,1.5,3.78,4.867,4.867,0,0,1-3.659,4.871l3.683,7.026Zm-5.112-9.5h2.713a2.818,2.818,0,0,0,1.975-.654,2.225,2.225,0,0,0,.715-1.721,2.253,2.253,0,0,0-.715-1.745,2.816,2.816,0,0,0-1.975-.654h-2.713Z" transform="translate(-431.899 -899.238)" fill="url(#linear-gradient-3)"/>
            <path id="Tracé_360" data-name="Tracé 360" d="M516,916.78H505.246V899.6H516v3.15H508.59v3.926H515.3v2.98H508.59v3.974H516Z" transform="translate(-443.631 -899.238)" fill="url(#linear-gradient-3)"/>
          </g>
        </g>
      </g>
      <path id="Tracé_483" data-name="Tracé 483" d="M517.864,891.991l-3.513,3.077h-2.956l2.5-3.077Z" transform="translate(1288.685 -273.08)" fill="#f21689"/>
    </g>
  </g>
</svg>
