<svg xmlns="http://www.w3.org/2000/svg" width="97.831" height="89.475" viewBox="0 0 97.831 89.475">
  <g id="Groupe_368" data-name="Groupe 368" transform="translate(-917.523 -1387.567)">
    <path id="Tracé_218" data-name="Tracé 218" d="M33.538,5.235C49.37,1.054,57.868-.914,63.327.407S79.973,7.664,79.973,19.8c0,20.1-18.213,37.341-38.312,37.341S0,37.232,0,17.133,17.706,9.417,33.538,5.235Z" transform="translate(1015.354 1437.056) rotate(150)" fill="#56cee0" opacity="0.253"/>
    <g id="noun_pieces_3194094" transform="translate(367.029 1528.66)">
      <g id="Groupe_266" data-name="Groupe 266" transform="translate(574.5 -116.56)">
        <path id="Tracé_349" data-name="Tracé 349" d="M46.052,46.237h-6.4c.063-.317.19-.634.254-.888a4.44,4.44,0,0,0,.063-2.726,4.714,4.714,0,0,0-3.423-3.36,4.853,4.853,0,0,0-4.057.888,4.6,4.6,0,0,0-1.775,3.677,3.719,3.719,0,0,0,.254,1.458,5.281,5.281,0,0,1,.254.951H25.956V39.264a1.252,1.252,0,0,0-.38-.888,1.213,1.213,0,0,0-.951-.254,18.457,18.457,0,0,0-2.536.634,2.457,2.457,0,0,1-3.106-2.98A2.538,2.538,0,0,1,20.694,34a2.593,2.593,0,0,1,1.395,0,19.549,19.549,0,0,0,2.6.634,1.136,1.136,0,0,0,.888-.254,1.064,1.064,0,0,0,.38-.888V26.141A1.136,1.136,0,0,0,24.815,25H3.641A1.136,1.136,0,0,0,2.5,26.141V68.552a1.136,1.136,0,0,0,1.141,1.141H46.052a1.136,1.136,0,0,0,1.141-1.141V47.378A1.136,1.136,0,0,0,46.052,46.237ZM44.911,67.474H4.782V27.282H23.737V32.29c-.317-.063-.634-.19-.888-.254a4.44,4.44,0,0,0-2.726-.063,4.708,4.708,0,0,0-2.472,7.481,4.646,4.646,0,0,0,5.135,1.521,4.171,4.171,0,0,1,.951-.254v6.72a1.136,1.136,0,0,0,1.141,1.141h7.8a1.252,1.252,0,0,0,.888-.38,1.213,1.213,0,0,0,.254-.951,21.131,21.131,0,0,0-.634-2.536,3.182,3.182,0,0,1-.127-.761,2.259,2.259,0,0,1,.951-1.9,2.334,2.334,0,0,1,2.155-.444,2.538,2.538,0,0,1,1.775,1.712,2.3,2.3,0,0,1-.063,1.458,24.68,24.68,0,0,0-.634,2.536,1.136,1.136,0,0,0,.254.888,1.064,1.064,0,0,0,.888.38h6.656V67.474Z" transform="translate(-2.5 -11.966)"/>
        <path id="Tracé_350" data-name="Tracé 350" d="M78.665,10.564a.982.982,0,0,0-.7-.507L57.491,4.478a.939.939,0,0,0-.824.127.982.982,0,0,0-.507.7l-1.648,6.213c-.254-.19-.571-.317-.824-.507a4.424,4.424,0,0,0-2.536-.761,4.618,4.618,0,0,0-4.184,2.409,4.682,4.682,0,0,0,2.916,6.783,3.8,3.8,0,0,0,1.458.127h.951l-1.648,6.213a1.149,1.149,0,0,0,.761,1.395L58.823,29.2a1.25,1.25,0,0,0,.951-.19,1.084,1.084,0,0,0,.444-.824c.063-.951.063-1.712.063-2.472a3.086,3.086,0,0,1,.063-.761,2.331,2.331,0,0,1,1.395-1.585,2.362,2.362,0,0,1,2.155.127,2.454,2.454,0,0,1,1.268,2.155,2.344,2.344,0,0,1-.38,1.331,13.725,13.725,0,0,0-1.2,2.155,1.236,1.236,0,0,0,0,.951,1.152,1.152,0,0,0,.7.634l7.544,1.965c.127,0,.19.063.317.063a1.087,1.087,0,0,0,1.078-.824l5.579-20.476A1.394,1.394,0,0,0,78.665,10.564ZM71.311,30.28,66.24,28.885a4.263,4.263,0,0,1,.444-.7,4.572,4.572,0,0,0,.761-2.536,4.618,4.618,0,0,0-2.409-4.184,4.682,4.682,0,0,0-6.783,2.916,3.8,3.8,0,0,0-.127,1.458v.824l-5.072-1.395,1.775-6.466a1.306,1.306,0,0,0-.19-.951,1.109,1.109,0,0,0-.888-.444,19.107,19.107,0,0,0-2.663-.063,3.086,3.086,0,0,1-.761-.063,2.331,2.331,0,0,1-1.585-1.395,2.362,2.362,0,0,1,.127-2.155,2.454,2.454,0,0,1,2.155-1.268,2.344,2.344,0,0,1,1.331.38,19.431,19.431,0,0,0,2.282,1.268,1.236,1.236,0,0,0,.951,0,1.152,1.152,0,0,0,.634-.7L58,6.95,76.32,11.9Z" transform="translate(-18.567 -4.44)"/>
      </g>
    </g>
  </g>
</svg>
